<svg width="400" height="80" viewBox="0 0 400 80" fill="none" xmlns="http://www.w3.org/2000/svg">
<rect x="0.5" y="0.5" width="399" height="79" rx="12.5" fill="#504337" fill-opacity="0.2" stroke="#5A5A5A"/>
<line x1="200.5" y1="19" x2="200.5" y2="59" stroke="#E0E3FF"/>
<path d="M39.1602 28C38.8679 28.5264 38.6056 29.071 38.367 29.6277C36.101 29.2828 33.7932 29.2828 31.5212 29.6277C31.2886 29.071 31.0203 28.5264 30.7281 28C28.5992 28.3691 26.524 29.0166 24.5561 29.9303C20.6561 35.7937 19.6006 41.5059 20.1254 47.1394C22.4093 48.8519 24.9676 50.1589 27.6928 50.9939C28.307 50.1589 28.8497 49.2694 29.3148 48.3436C28.4322 48.0108 27.5795 47.5933 26.7625 47.1092C26.9772 46.9519 27.1859 46.7885 27.3887 46.6311C32.1772 48.9185 37.723 48.9185 42.5175 46.6311C42.7202 46.8006 42.9289 46.964 43.1436 47.1092C42.3266 47.5993 41.4739 48.0108 40.5854 48.3497C41.0505 49.2755 41.5931 50.165 42.2074 51C44.9325 50.165 47.4907 48.864 49.7749 47.1515C50.3949 40.6164 48.7133 34.9526 45.332 29.9363C43.3702 29.0226 41.295 28.3752 39.1661 28.0121L39.1602 28ZM29.9827 43.6722C28.5098 43.6722 27.2873 42.3168 27.2873 40.6406C27.2873 38.9645 28.4621 37.603 29.9767 37.603C31.4914 37.603 32.696 38.9705 32.6721 40.6406C32.6483 42.3107 31.4854 43.6722 29.9827 43.6722ZM39.9175 43.6722C38.4386 43.6722 37.2281 42.3168 37.2281 40.6406C37.2281 38.9645 38.4028 37.603 39.9175 37.603C41.4322 37.603 42.6308 38.9705 42.6069 40.6406C42.5831 42.3107 41.4202 43.6722 39.9175 43.6722ZM59.8644 31.1899H68.7647C70.9099 31.1899 72.7247 31.5295 74.2092 32.2088C75.5759 32.7919 76.7365 33.7815 77.5378 35.0472C78.288 36.2976 78.6725 37.7387 78.6463 39.2023C78.6628 40.6727 78.2634 42.117 77.4954 43.364C76.6388 44.6813 75.4138 45.7089 73.9777 46.3149C72.4041 47.0427 70.4534 47.4055 68.1257 47.4033H59.8644L59.8644 31.1899ZM68.0344 43.278C69.4797 43.278 70.5904 42.9119 71.3663 42.1797C72.1623 41.3964 72.5351 40.3296 72.5302 39.1791C72.5344 38.1141 72.2043 37.1207 71.4935 36.3672C70.798 35.6659 69.7514 35.3141 68.3539 35.3119H65.5697V43.278H68.0344ZM91.974 47.3768C90.7998 47.0783 89.6765 46.6021 88.642 45.9642V42.1202C89.5452 42.7867 90.5621 43.278 91.6414 43.5691C92.8221 43.9347 94.0487 44.1252 95.283 44.1348C95.7091 44.1579 96.1347 44.0833 96.5284 43.9165C96.8088 43.7709 96.949 43.5857 96.949 43.3938C96.9551 43.1771 96.8725 42.9675 96.7208 42.8149C96.4604 42.6116 96.1547 42.4765 95.8307 42.4212L93.0922 41.796C91.523 41.4254 90.4091 40.9127 89.7505 40.2577C89.0821 39.5736 88.7273 38.6362 88.7725 37.674C88.7615 36.8114 89.0711 35.9764 89.6397 35.3351C90.3138 34.6115 91.1639 34.0809 92.1044 33.7968C93.3147 33.4108 94.5786 33.2264 95.8471 33.2509C97.0311 33.2397 98.2119 33.3797 99.3615 33.6678C100.29 33.891 101.182 34.2498 102.009 34.733V38.372C101.233 37.9154 100.4 37.5692 99.5311 37.3432C98.5901 37.0871 97.62 36.9581 96.6458 36.9594C95.2157 36.9594 94.5006 37.2064 94.5006 37.7004C94.4957 37.9254 94.6242 38.1313 94.8266 38.2231C95.2173 38.3917 95.6267 38.5117 96.0459 38.5804L98.328 38.9973C99.8103 39.2619 100.916 39.7251 101.644 40.3867C102.372 41.0483 102.737 42.0165 102.739 43.2913C102.763 44.6553 102.071 45.9297 100.923 46.6392C99.7212 47.4574 98.0053 47.8654 95.7753 47.8632C94.493 47.8652 93.2157 47.7017 91.974 47.3768ZM108.131 46.8905C106.911 46.3217 105.883 45.4013 105.174 44.244C104.513 43.1091 104.175 41.8106 104.196 40.4925C104.177 39.1752 104.533 37.8803 105.223 36.7642C105.959 35.6251 107.006 34.7283 108.236 34.1838C109.731 33.5225 111.352 33.2018 112.983 33.2443C115.265 33.2443 117.159 33.7306 118.665 34.7032V38.9476C118.092 38.5567 117.466 38.2525 116.807 38.0444C116.069 37.808 115.299 37.6908 114.525 37.6971C113.11 37.6971 112.002 37.9595 111.203 38.4844C110.078 39.1211 109.676 40.5619 110.303 41.7026C110.507 42.0743 110.807 42.3831 111.17 42.5965C111.946 43.128 113.072 43.3938 114.547 43.3938C115.309 43.3956 116.067 43.2841 116.797 43.0629C117.463 42.8692 118.102 42.5925 118.701 42.2392V46.3413C116.937 47.385 114.923 47.9139 112.881 47.8697C111.245 47.915 109.621 47.5801 108.131 46.8905ZM124.348 46.8905C123.114 46.3189 122.067 45.4004 121.332 44.244C120.639 43.1117 120.279 41.8021 120.295 40.4694C120.273 39.1524 120.634 37.858 121.332 36.7476C122.071 35.6206 123.113 34.732 124.335 34.1871C127.335 32.952 130.691 32.952 133.691 34.1871C134.908 34.7279 135.946 35.6121 136.681 36.7344C137.375 37.8488 137.731 39.1449 137.708 40.4627C137.724 41.7942 137.368 43.1029 136.681 44.2374C135.954 45.3946 134.912 46.3137 133.682 46.8839C130.701 48.1807 127.328 48.1807 124.348 46.8839L124.348 46.8905ZM131.282 42.7818C131.852 42.1848 132.154 41.3757 132.117 40.5454C132.157 39.7226 131.854 38.9207 131.282 38.3356C130.662 37.759 129.839 37.4618 129 37.5118C128.161 37.4671 127.34 37.7636 126.718 38.3356C126.148 38.9219 125.847 39.7233 125.886 40.5454C125.85 41.3751 126.15 42.1836 126.718 42.7818C127.334 43.3655 128.158 43.67 129 43.6253C129.843 43.6751 130.668 43.3699 131.282 42.7818ZM151.423 34.1011V39.1097C150.742 38.6972 149.957 38.4959 149.164 38.5308C147.948 38.5308 147.009 38.9079 146.357 39.6555C145.705 40.4032 145.379 41.5643 145.379 43.1391V47.4H139.788V33.853H145.265V38.1536C145.569 36.579 146.06 35.4178 146.739 34.6701C147.404 33.9261 148.37 33.5351 149.347 33.5453C150.07 33.5438 150.798 33.718 151.423 34.1011ZM170 30.7268V47.4H164.409V44.3564C163.987 45.44 163.23 46.3549 162.251 46.9633C161.17 47.5881 159.94 47.8994 158.697 47.8631C157.527 47.8908 156.375 47.5649 155.388 46.9269C154.432 46.2967 153.67 45.4058 153.19 44.3564C152.667 43.1981 152.406 41.9354 152.428 40.6612C152.391 39.3402 152.668 38.0295 153.236 36.8403C153.758 35.751 154.573 34.8335 155.587 34.1937C156.629 33.5532 157.828 33.2241 159.046 33.2443C161.706 33.2443 163.494 34.4176 164.409 36.7642V30.7268H170ZM163.587 42.7024C164.163 42.1269 164.475 41.3321 164.445 40.5124C164.469 39.7168 164.157 38.9487 163.587 38.4017C162.269 37.3124 160.377 37.3124 159.059 38.4017C158.491 38.9612 158.184 39.7394 158.214 40.5421C158.185 41.3524 158.496 42.1372 159.069 42.7024C159.674 43.2731 160.48 43.5725 161.305 43.5327C162.145 43.5798 162.968 43.2803 163.587 42.7024ZM83.3605 30.214C84.9 30.214 86.148 31.3515 86.148 32.7547C86.148 34.1579 84.9 35.2954 83.3605 35.2954C81.821 35.2954 80.5731 34.1579 80.5731 32.7547C80.5731 31.3515 81.821 30.214 83.3605 30.214ZM80.5698 37.0454C82.3536 37.8061 84.3642 37.8061 86.148 37.0454V47.4728H80.5698V37.0454Z" fill="#5865F2"/>
<path d="M222.984 28H221.76L219.492 24.28L217.188 28H216.048L218.892 23.536L216.228 19.432H217.428L219.528 22.792L221.64 19.432H222.78L220.128 23.512L222.984 28ZM229.643 24.772C229.643 25.308 229.571 25.784 229.427 26.2C229.291 26.608 229.091 26.956 228.827 27.244C228.571 27.532 228.255 27.752 227.879 27.904C227.511 28.048 227.099 28.12 226.643 28.12C226.219 28.12 225.827 28.048 225.467 27.904C225.107 27.752 224.795 27.532 224.531 27.244C224.267 26.956 224.059 26.608 223.907 26.2C223.763 25.784 223.691 25.308 223.691 24.772C223.691 24.06 223.811 23.46 224.051 22.972C224.291 22.476 224.635 22.1 225.083 21.844C225.531 21.58 226.063 21.448 226.679 21.448C227.263 21.448 227.775 21.58 228.215 21.844C228.663 22.1 229.011 22.476 229.259 22.972C229.515 23.46 229.643 24.06 229.643 24.772ZM224.783 24.772C224.783 25.276 224.847 25.716 224.975 26.092C225.111 26.46 225.319 26.744 225.599 26.944C225.879 27.144 226.235 27.244 226.667 27.244C227.099 27.244 227.455 27.144 227.735 26.944C228.015 26.744 228.219 26.46 228.347 26.092C228.483 25.716 228.551 25.276 228.551 24.772C228.551 24.26 228.483 23.824 228.347 23.464C228.211 23.104 228.003 22.828 227.723 22.636C227.451 22.436 227.095 22.336 226.655 22.336C225.999 22.336 225.523 22.552 225.227 22.984C224.931 23.416 224.783 24.012 224.783 24.772ZM232.124 23.908C232.124 24.284 232.228 24.564 232.436 24.748C232.652 24.924 232.96 25.012 233.36 25.012C233.76 25.012 234.124 24.952 234.452 24.832C234.78 24.704 235.116 24.536 235.46 24.328V21.568H236.516V28H235.46V25.132C235.1 25.364 234.744 25.548 234.392 25.684C234.048 25.812 233.632 25.876 233.144 25.876C232.488 25.876 231.976 25.704 231.608 25.36C231.248 25.016 231.068 24.556 231.068 23.98V21.568H232.124V23.908ZM241.043 21.448C241.595 21.448 242.067 21.568 242.459 21.808C242.859 22.048 243.163 22.388 243.371 22.828C243.587 23.26 243.695 23.768 243.695 24.352V24.988H239.291C239.307 25.716 239.491 26.272 239.843 26.656C240.203 27.032 240.703 27.22 241.343 27.22C241.751 27.22 242.111 27.184 242.423 27.112C242.743 27.032 243.071 26.92 243.407 26.776V27.7C243.079 27.844 242.755 27.948 242.435 28.012C242.115 28.084 241.735 28.12 241.295 28.12C240.687 28.12 240.147 27.996 239.675 27.748C239.211 27.5 238.847 27.132 238.583 26.644C238.327 26.148 238.199 25.544 238.199 24.832C238.199 24.128 238.315 23.524 238.547 23.02C238.787 22.516 239.119 22.128 239.543 21.856C239.975 21.584 240.475 21.448 241.043 21.448ZM241.031 22.312C240.527 22.312 240.127 22.476 239.831 22.804C239.543 23.124 239.371 23.572 239.315 24.148H242.591C242.591 23.78 242.535 23.46 242.423 23.188C242.311 22.916 242.139 22.704 241.907 22.552C241.683 22.392 241.391 22.312 241.031 22.312ZM254.057 21.568V28H245.333V21.568H246.389V27.112H249.161V21.568H250.217V27.112H253.001V21.568H254.057ZM259.078 24.208C259.638 24.208 260.102 24.276 260.47 24.412C260.838 24.548 261.114 24.752 261.298 25.024C261.49 25.288 261.586 25.624 261.586 26.032C261.586 26.432 261.494 26.78 261.31 27.076C261.134 27.372 260.858 27.6 260.482 27.76C260.106 27.92 259.622 28 259.03 28H256.114V21.568H257.17V24.208H259.078ZM260.53 26.092C260.53 25.7 260.39 25.436 260.11 25.3C259.838 25.156 259.454 25.084 258.958 25.084H257.17V27.148H258.982C259.43 27.148 259.798 27.068 260.086 26.908C260.382 26.748 260.53 26.476 260.53 26.092ZM268.944 23.908C268.944 24.284 269.048 24.564 269.256 24.748C269.472 24.924 269.78 25.012 270.18 25.012C270.58 25.012 270.944 24.952 271.272 24.832C271.6 24.704 271.936 24.536 272.28 24.328V21.568H273.336V28H272.28V25.132C271.92 25.364 271.564 25.548 271.212 25.684C270.868 25.812 270.452 25.876 269.964 25.876C269.308 25.876 268.796 25.704 268.428 25.36C268.068 25.016 267.888 24.556 267.888 23.98V21.568H268.944V23.908ZM279.819 22.456H277.719V28H276.675V22.456H274.599V21.568H279.819V22.456ZM286.561 24.772C286.561 25.308 286.489 25.784 286.345 26.2C286.209 26.608 286.009 26.956 285.745 27.244C285.489 27.532 285.173 27.752 284.797 27.904C284.429 28.048 284.017 28.12 283.561 28.12C283.137 28.12 282.745 28.048 282.385 27.904C282.025 27.752 281.713 27.532 281.449 27.244C281.185 26.956 280.977 26.608 280.825 26.2C280.681 25.784 280.609 25.308 280.609 24.772C280.609 24.06 280.729 23.46 280.969 22.972C281.209 22.476 281.553 22.1 282.001 21.844C282.449 21.58 282.981 21.448 283.597 21.448C284.181 21.448 284.693 21.58 285.133 21.844C285.581 22.1 285.929 22.476 286.177 22.972C286.433 23.46 286.561 24.06 286.561 24.772ZM281.701 24.772C281.701 25.276 281.765 25.716 281.893 26.092C282.029 26.46 282.237 26.744 282.517 26.944C282.797 27.144 283.153 27.244 283.585 27.244C284.017 27.244 284.373 27.144 284.653 26.944C284.933 26.744 285.137 26.46 285.265 26.092C285.401 25.716 285.469 25.276 285.469 24.772C285.469 24.26 285.401 23.824 285.265 23.464C285.129 23.104 284.921 22.828 284.641 22.636C284.369 22.436 284.013 22.336 283.573 22.336C282.917 22.336 282.441 22.552 282.145 22.984C281.849 23.416 281.701 24.012 281.701 24.772ZM290.467 25.804H287.731V25.156H290.467V25.804ZM296.437 22.456H294.337V28H293.293V22.456H291.217V21.568H296.437V22.456ZM303.178 24.772C303.178 25.308 303.106 25.784 302.962 26.2C302.826 26.608 302.626 26.956 302.362 27.244C302.106 27.532 301.79 27.752 301.414 27.904C301.046 28.048 300.634 28.12 300.178 28.12C299.754 28.12 299.362 28.048 299.002 27.904C298.642 27.752 298.33 27.532 298.066 27.244C297.802 26.956 297.594 26.608 297.442 26.2C297.298 25.784 297.226 25.308 297.226 24.772C297.226 24.06 297.346 23.46 297.586 22.972C297.826 22.476 298.17 22.1 298.618 21.844C299.066 21.58 299.598 21.448 300.214 21.448C300.798 21.448 301.31 21.58 301.75 21.844C302.198 22.1 302.546 22.476 302.794 22.972C303.05 23.46 303.178 24.06 303.178 24.772ZM298.318 24.772C298.318 25.276 298.382 25.716 298.51 26.092C298.646 26.46 298.854 26.744 299.134 26.944C299.414 27.144 299.77 27.244 300.202 27.244C300.634 27.244 300.99 27.144 301.27 26.944C301.55 26.744 301.754 26.46 301.882 26.092C302.018 25.716 302.086 25.276 302.086 24.772C302.086 24.26 302.018 23.824 301.882 23.464C301.746 23.104 301.538 22.828 301.258 22.636C300.986 22.436 300.63 22.336 300.19 22.336C299.534 22.336 299.058 22.552 298.762 22.984C298.466 23.416 298.318 24.012 298.318 24.772ZM315.069 21.568V28H314.013V22.468H310.689V28H309.633V21.568H315.069ZM320.182 21.448C320.974 21.448 321.61 21.724 322.09 22.276C322.578 22.828 322.822 23.66 322.822 24.772C322.822 25.5 322.71 26.116 322.486 26.62C322.27 27.116 321.962 27.492 321.562 27.748C321.17 27.996 320.706 28.12 320.17 28.12C319.842 28.12 319.55 28.076 319.294 27.988C319.038 27.9 318.818 27.788 318.634 27.652C318.458 27.508 318.306 27.352 318.178 27.184H318.106C318.122 27.32 318.138 27.492 318.154 27.7C318.17 27.908 318.178 28.088 318.178 28.24V30.88H317.122V21.568H317.986L318.13 22.444H318.178C318.306 22.26 318.458 22.092 318.634 21.94C318.818 21.788 319.034 21.668 319.282 21.58C319.538 21.492 319.838 21.448 320.182 21.448ZM319.99 22.336C319.558 22.336 319.21 22.42 318.946 22.588C318.682 22.748 318.49 22.992 318.37 23.32C318.25 23.648 318.186 24.064 318.178 24.568V24.772C318.178 25.3 318.234 25.748 318.346 26.116C318.458 26.484 318.646 26.764 318.91 26.956C319.182 27.148 319.55 27.244 320.014 27.244C320.406 27.244 320.726 27.136 320.974 26.92C321.23 26.704 321.418 26.412 321.538 26.044C321.666 25.668 321.73 25.24 321.73 24.76C321.73 24.024 321.586 23.436 321.298 22.996C321.018 22.556 320.582 22.336 319.99 22.336ZM326.988 21.448C327.54 21.448 328.012 21.568 328.404 21.808C328.804 22.048 329.108 22.388 329.316 22.828C329.532 23.26 329.64 23.768 329.64 24.352V24.988H325.236C325.252 25.716 325.436 26.272 325.788 26.656C326.148 27.032 326.648 27.22 327.288 27.22C327.696 27.22 328.056 27.184 328.368 27.112C328.688 27.032 329.016 26.92 329.352 26.776V27.7C329.024 27.844 328.7 27.948 328.38 28.012C328.06 28.084 327.68 28.12 327.24 28.12C326.632 28.12 326.092 27.996 325.62 27.748C325.156 27.5 324.792 27.132 324.528 26.644C324.272 26.148 324.144 25.544 324.144 24.832C324.144 24.128 324.26 23.524 324.492 23.02C324.732 22.516 325.064 22.128 325.488 21.856C325.92 21.584 326.42 21.448 326.988 21.448ZM326.976 22.312C326.472 22.312 326.072 22.476 325.776 22.804C325.488 23.124 325.316 23.572 325.26 24.148H328.536C328.536 23.78 328.48 23.46 328.368 23.188C328.256 22.916 328.084 22.704 327.852 22.552C327.628 22.392 327.336 22.312 326.976 22.312ZM336.054 21.568V27.112H336.99V30.232H335.97V28H331.494V30.232H330.486V27.112H331.002C331.37 26.6 331.674 26.044 331.914 25.444C332.162 24.836 332.346 24.204 332.466 23.548C332.594 22.884 332.662 22.224 332.67 21.568H336.054ZM333.606 22.396C333.574 22.94 333.49 23.504 333.354 24.088C333.218 24.664 333.042 25.216 332.826 25.744C332.618 26.272 332.374 26.728 332.094 27.112H335.034V22.396H333.606ZM343.146 28H342.078V22.444H340.182C340.102 23.46 340.002 24.328 339.882 25.048C339.762 25.76 339.61 26.34 339.426 26.788C339.242 27.236 339.022 27.564 338.766 27.772C338.51 27.98 338.21 28.084 337.866 28.084C337.762 28.084 337.658 28.076 337.554 28.06C337.458 28.052 337.378 28.032 337.314 28V27.208C337.362 27.224 337.414 27.236 337.47 27.244C337.526 27.252 337.582 27.256 337.638 27.256C337.814 27.256 337.974 27.184 338.118 27.04C338.262 26.896 338.39 26.676 338.502 26.38C338.622 26.084 338.73 25.712 338.826 25.264C338.922 24.808 339.006 24.272 339.078 23.656C339.15 23.04 339.214 22.344 339.27 21.568H343.146V28ZM350.78 24.772C350.78 25.308 350.708 25.784 350.564 26.2C350.428 26.608 350.228 26.956 349.964 27.244C349.708 27.532 349.392 27.752 349.016 27.904C348.648 28.048 348.236 28.12 347.78 28.12C347.356 28.12 346.964 28.048 346.604 27.904C346.244 27.752 345.932 27.532 345.668 27.244C345.404 26.956 345.196 26.608 345.044 26.2C344.9 25.784 344.828 25.308 344.828 24.772C344.828 24.06 344.948 23.46 345.188 22.972C345.428 22.476 345.772 22.1 346.22 21.844C346.668 21.58 347.2 21.448 347.816 21.448C348.4 21.448 348.912 21.58 349.352 21.844C349.8 22.1 350.148 22.476 350.396 22.972C350.652 23.46 350.78 24.06 350.78 24.772ZM345.92 24.772C345.92 25.276 345.984 25.716 346.112 26.092C346.248 26.46 346.456 26.744 346.736 26.944C347.016 27.144 347.372 27.244 347.804 27.244C348.236 27.244 348.592 27.144 348.872 26.944C349.152 26.744 349.356 26.46 349.484 26.092C349.62 25.716 349.688 25.276 349.688 24.772C349.688 24.26 349.62 23.824 349.484 23.464C349.348 23.104 349.14 22.828 348.86 22.636C348.588 22.436 348.232 22.336 347.792 22.336C347.136 22.336 346.66 22.552 346.364 22.984C346.068 23.416 345.92 24.012 345.92 24.772ZM359.935 21.568L357.283 24.688L360.163 28H358.963L356.179 24.736V28H355.195V24.736L352.411 28H351.211L354.091 24.688L351.439 21.568H352.591L355.195 24.688V21.568H356.179V24.688L358.795 21.568H359.935ZM362.215 25.492C362.215 25.564 362.211 25.668 362.203 25.804C362.203 25.932 362.199 26.072 362.191 26.224C362.183 26.368 362.175 26.508 362.167 26.644C362.159 26.772 362.151 26.876 362.143 26.956L365.587 21.568H366.883V28H365.899V24.208C365.899 24.08 365.899 23.912 365.899 23.704C365.907 23.496 365.915 23.292 365.923 23.092C365.931 22.884 365.939 22.728 365.947 22.624L362.527 28H361.219V21.568H362.215V25.492ZM373.37 22.456H371.27V28H370.226V22.456H368.15V21.568H373.37V22.456ZM377.601 24.208C378.161 24.208 378.625 24.276 378.993 24.412C379.361 24.548 379.637 24.752 379.821 25.024C380.013 25.288 380.109 25.624 380.109 26.032C380.109 26.432 380.017 26.78 379.833 27.076C379.657 27.372 379.381 27.6 379.005 27.76C378.629 27.92 378.145 28 377.553 28H374.637V21.568H375.693V24.208H377.601ZM379.053 26.092C379.053 25.7 378.913 25.436 378.633 25.3C378.361 25.156 377.977 25.084 377.481 25.084H375.693V27.148H377.505C377.953 27.148 378.321 27.068 378.609 26.908C378.905 26.748 379.053 26.476 379.053 26.092ZM382.206 27.928C382.206 28.728 381.89 29.204 381.258 29.356V28.936C381.586 28.872 381.75 28.56 381.75 28H381.414V27.196H382.206V27.928ZM219.6 43.12C219.032 43.12 218.524 43.004 218.076 42.772C217.636 42.54 217.288 42.18 217.032 41.692C216.784 41.204 216.66 40.58 216.66 39.82C216.66 39.028 216.792 38.384 217.056 37.888C217.32 37.392 217.676 37.028 218.124 36.796C218.58 36.564 219.096 36.448 219.672 36.448C220 36.448 220.316 36.484 220.62 36.556C220.924 36.62 221.172 36.7 221.364 36.796L221.04 37.672C220.848 37.6 220.624 37.532 220.368 37.468C220.112 37.404 219.872 37.372 219.648 37.372C219.216 37.372 218.86 37.464 218.58 37.648C218.3 37.832 218.092 38.104 217.956 38.464C217.82 38.824 217.752 39.272 217.752 39.808C217.752 40.32 217.82 40.756 217.956 41.116C218.092 41.476 218.296 41.748 218.568 41.932C218.84 42.116 219.18 42.208 219.588 42.208C219.94 42.208 220.248 42.172 220.512 42.1C220.784 42.028 221.032 41.94 221.256 41.836V42.772C221.04 42.884 220.8 42.968 220.536 43.024C220.28 43.088 219.968 43.12 219.6 43.12ZM228.222 36.568V43H227.166V37.468H223.842V43H222.786V36.568H228.222ZM233.334 36.448C234.126 36.448 234.762 36.724 235.242 37.276C235.73 37.828 235.974 38.66 235.974 39.772C235.974 40.5 235.862 41.116 235.638 41.62C235.422 42.116 235.114 42.492 234.714 42.748C234.322 42.996 233.858 43.12 233.322 43.12C232.994 43.12 232.702 43.076 232.446 42.988C232.19 42.9 231.97 42.788 231.786 42.652C231.61 42.508 231.458 42.352 231.33 42.184H231.258C231.274 42.32 231.29 42.492 231.306 42.7C231.322 42.908 231.33 43.088 231.33 43.24V45.88H230.274V36.568H231.138L231.282 37.444H231.33C231.458 37.26 231.61 37.092 231.786 36.94C231.97 36.788 232.186 36.668 232.434 36.58C232.69 36.492 232.99 36.448 233.334 36.448ZM233.142 37.336C232.71 37.336 232.362 37.42 232.098 37.588C231.834 37.748 231.642 37.992 231.522 38.32C231.402 38.648 231.338 39.064 231.33 39.568V39.772C231.33 40.3 231.386 40.748 231.498 41.116C231.61 41.484 231.798 41.764 232.062 41.956C232.334 42.148 232.702 42.244 233.166 42.244C233.558 42.244 233.878 42.136 234.126 41.92C234.382 41.704 234.57 41.412 234.69 41.044C234.818 40.668 234.882 40.24 234.882 39.76C234.882 39.024 234.738 38.436 234.45 37.996C234.17 37.556 233.734 37.336 233.142 37.336ZM243.249 39.772C243.249 40.308 243.177 40.784 243.033 41.2C242.897 41.608 242.697 41.956 242.433 42.244C242.177 42.532 241.861 42.752 241.485 42.904C241.117 43.048 240.705 43.12 240.249 43.12C239.825 43.12 239.433 43.048 239.073 42.904C238.713 42.752 238.401 42.532 238.137 42.244C237.873 41.956 237.665 41.608 237.513 41.2C237.369 40.784 237.297 40.308 237.297 39.772C237.297 39.06 237.417 38.46 237.657 37.972C237.897 37.476 238.241 37.1 238.689 36.844C239.137 36.58 239.669 36.448 240.285 36.448C240.869 36.448 241.381 36.58 241.821 36.844C242.269 37.1 242.617 37.476 242.865 37.972C243.121 38.46 243.249 39.06 243.249 39.772ZM238.389 39.772C238.389 40.276 238.453 40.716 238.581 41.092C238.717 41.46 238.925 41.744 239.205 41.944C239.485 42.144 239.841 42.244 240.273 42.244C240.705 42.244 241.061 42.144 241.341 41.944C241.621 41.744 241.825 41.46 241.953 41.092C242.089 40.716 242.157 40.276 242.157 39.772C242.157 39.26 242.089 38.824 241.953 38.464C241.817 38.104 241.609 37.828 241.329 37.636C241.057 37.436 240.701 37.336 240.261 37.336C239.605 37.336 239.129 37.552 238.833 37.984C238.537 38.416 238.389 39.012 238.389 39.772ZM247.502 43.12C246.934 43.12 246.426 43.004 245.978 42.772C245.538 42.54 245.19 42.18 244.934 41.692C244.686 41.204 244.562 40.58 244.562 39.82C244.562 39.028 244.694 38.384 244.958 37.888C245.222 37.392 245.578 37.028 246.026 36.796C246.482 36.564 246.998 36.448 247.574 36.448C247.902 36.448 248.218 36.484 248.522 36.556C248.826 36.62 249.074 36.7 249.266 36.796L248.942 37.672C248.75 37.6 248.526 37.532 248.27 37.468C248.014 37.404 247.774 37.372 247.55 37.372C247.118 37.372 246.762 37.464 246.482 37.648C246.202 37.832 245.994 38.104 245.858 38.464C245.722 38.824 245.654 39.272 245.654 39.808C245.654 40.32 245.722 40.756 245.858 41.116C245.994 41.476 246.198 41.748 246.47 41.932C246.742 42.116 247.082 42.208 247.49 42.208C247.842 42.208 248.15 42.172 248.414 42.1C248.686 42.028 248.934 41.94 249.158 41.836V42.772C248.942 42.884 248.702 42.968 248.438 43.024C248.182 43.088 247.87 43.12 247.502 43.12ZM251.684 40.492C251.684 40.564 251.68 40.668 251.672 40.804C251.672 40.932 251.668 41.072 251.66 41.224C251.652 41.368 251.644 41.508 251.636 41.644C251.628 41.772 251.62 41.876 251.612 41.956L255.056 36.568H256.352V43H255.368V39.208C255.368 39.08 255.368 38.912 255.368 38.704C255.376 38.496 255.384 38.292 255.392 38.092C255.4 37.884 255.408 37.728 255.416 37.624L251.996 43H250.688V36.568H251.684V40.492ZM262.839 37.456H260.739V43H259.695V37.456H257.619V36.568H262.839V37.456ZM267.07 39.208C267.63 39.208 268.094 39.276 268.462 39.412C268.83 39.548 269.106 39.752 269.29 40.024C269.482 40.288 269.578 40.624 269.578 41.032C269.578 41.432 269.486 41.78 269.302 42.076C269.126 42.372 268.85 42.6 268.474 42.76C268.098 42.92 267.614 43 267.022 43H264.106V36.568H265.162V39.208H267.07ZM268.522 41.092C268.522 40.7 268.382 40.436 268.102 40.3C267.83 40.156 267.446 40.084 266.95 40.084H265.162V42.148H266.974C267.422 42.148 267.79 42.068 268.078 41.908C268.374 41.748 268.522 41.476 268.522 41.092ZM271.675 42.928C271.675 43.728 271.359 44.204 270.727 44.356V43.936C271.055 43.872 271.219 43.56 271.219 43H270.883V42.196H271.675V42.928ZM279.305 40.492C279.305 40.564 279.301 40.668 279.293 40.804C279.293 40.932 279.289 41.072 279.281 41.224C279.273 41.368 279.265 41.508 279.257 41.644C279.249 41.772 279.241 41.876 279.233 41.956L282.677 36.568H283.973V43H282.989V39.208C282.989 39.08 282.989 38.912 282.989 38.704C282.997 38.496 283.005 38.292 283.013 38.092C283.021 37.884 283.029 37.728 283.037 37.624L279.617 43H278.309V36.568H279.305V40.492ZM290.916 43H289.848V37.444H287.952C287.872 38.46 287.772 39.328 287.652 40.048C287.532 40.76 287.38 41.34 287.196 41.788C287.012 42.236 286.792 42.564 286.536 42.772C286.28 42.98 285.98 43.084 285.636 43.084C285.532 43.084 285.428 43.076 285.324 43.06C285.228 43.052 285.148 43.032 285.084 43V42.208C285.132 42.224 285.184 42.236 285.24 42.244C285.296 42.252 285.352 42.256 285.408 42.256C285.584 42.256 285.744 42.184 285.888 42.04C286.032 41.896 286.16 41.676 286.272 41.38C286.392 41.084 286.5 40.712 286.596 40.264C286.692 39.808 286.776 39.272 286.848 38.656C286.92 38.04 286.984 37.344 287.04 36.568H290.916V43ZM293.954 40.492C293.954 40.564 293.95 40.668 293.942 40.804C293.942 40.932 293.938 41.072 293.93 41.224C293.922 41.368 293.914 41.508 293.906 41.644C293.898 41.772 293.89 41.876 293.882 41.956L297.326 36.568H298.622V43H297.638V39.208C297.638 39.08 297.638 38.912 297.638 38.704C297.646 38.496 297.654 38.292 297.662 38.092C297.67 37.884 297.678 37.728 297.686 37.624L294.266 43H292.958V36.568H293.954V40.492ZM311.042 39.772C311.042 40.308 310.97 40.784 310.826 41.2C310.69 41.608 310.49 41.956 310.226 42.244C309.97 42.532 309.654 42.752 309.278 42.904C308.91 43.048 308.498 43.12 308.042 43.12C307.618 43.12 307.226 43.048 306.866 42.904C306.506 42.752 306.194 42.532 305.93 42.244C305.666 41.956 305.458 41.608 305.306 41.2C305.162 40.784 305.09 40.308 305.09 39.772C305.09 39.06 305.21 38.46 305.45 37.972C305.69 37.476 306.034 37.1 306.482 36.844C306.93 36.58 307.462 36.448 308.078 36.448C308.662 36.448 309.174 36.58 309.614 36.844C310.062 37.1 310.41 37.476 310.658 37.972C310.914 38.46 311.042 39.06 311.042 39.772ZM306.182 39.772C306.182 40.276 306.246 40.716 306.374 41.092C306.51 41.46 306.718 41.744 306.998 41.944C307.278 42.144 307.634 42.244 308.066 42.244C308.498 42.244 308.854 42.144 309.134 41.944C309.414 41.744 309.618 41.46 309.746 41.092C309.882 40.716 309.95 40.276 309.95 39.772C309.95 39.26 309.882 38.824 309.746 38.464C309.61 38.104 309.402 37.828 309.122 37.636C308.85 37.436 308.494 37.336 308.054 37.336C307.398 37.336 306.922 37.552 306.626 37.984C306.33 38.416 306.182 39.012 306.182 39.772ZM312.379 39.136C312.379 38.2 312.471 37.404 312.655 36.748C312.847 36.084 313.139 35.556 313.531 35.164C313.931 34.764 314.443 34.496 315.067 34.36C315.587 34.248 316.095 34.148 316.591 34.06C317.087 33.972 317.551 33.892 317.983 33.82L318.163 34.744C317.955 34.776 317.723 34.816 317.467 34.864C317.211 34.904 316.951 34.948 316.687 34.996C316.423 35.036 316.167 35.08 315.919 35.128C315.679 35.168 315.467 35.208 315.283 35.248C315.019 35.304 314.783 35.4 314.575 35.536C314.367 35.664 314.187 35.84 314.035 36.064C313.891 36.288 313.775 36.564 313.687 36.892C313.599 37.22 313.547 37.608 313.531 38.056H313.603C313.715 37.904 313.867 37.748 314.059 37.588C314.259 37.428 314.495 37.292 314.767 37.18C315.047 37.068 315.363 37.012 315.715 37.012C316.275 37.012 316.739 37.136 317.107 37.384C317.483 37.624 317.763 37.96 317.947 38.392C318.139 38.824 318.235 39.328 318.235 39.904C318.235 40.616 318.111 41.212 317.863 41.692C317.615 42.172 317.271 42.532 316.831 42.772C316.391 43.004 315.879 43.12 315.295 43.12C314.855 43.12 314.455 43.036 314.095 42.868C313.735 42.692 313.427 42.436 313.171 42.1C312.915 41.764 312.719 41.348 312.583 40.852C312.447 40.356 312.379 39.784 312.379 39.136ZM315.379 42.244C315.731 42.244 316.035 42.172 316.291 42.028C316.555 41.884 316.759 41.648 316.903 41.32C317.047 40.992 317.119 40.556 317.119 40.012C317.119 39.356 316.995 38.84 316.747 38.464C316.507 38.08 316.107 37.888 315.547 37.888C315.195 37.888 314.875 37.968 314.587 38.128C314.299 38.28 314.059 38.456 313.867 38.656C313.675 38.856 313.539 39.024 313.459 39.16C313.459 39.552 313.487 39.932 313.543 40.3C313.599 40.668 313.695 41 313.831 41.296C313.975 41.584 314.171 41.816 314.419 41.992C314.675 42.16 314.995 42.244 315.379 42.244ZM322.479 43.12C321.911 43.12 321.403 43.004 320.955 42.772C320.515 42.54 320.167 42.18 319.911 41.692C319.663 41.204 319.539 40.58 319.539 39.82C319.539 39.028 319.671 38.384 319.935 37.888C320.199 37.392 320.555 37.028 321.003 36.796C321.459 36.564 321.975 36.448 322.551 36.448C322.879 36.448 323.195 36.484 323.499 36.556C323.803 36.62 324.051 36.7 324.243 36.796L323.919 37.672C323.727 37.6 323.503 37.532 323.247 37.468C322.991 37.404 322.751 37.372 322.527 37.372C322.095 37.372 321.739 37.464 321.459 37.648C321.179 37.832 320.971 38.104 320.835 38.464C320.699 38.824 320.631 39.272 320.631 39.808C320.631 40.32 320.699 40.756 320.835 41.116C320.971 41.476 321.175 41.748 321.447 41.932C321.719 42.116 322.059 42.208 322.467 42.208C322.819 42.208 323.127 42.172 323.391 42.1C323.663 42.028 323.911 41.94 324.135 41.836V42.772C323.919 42.884 323.679 42.968 323.415 43.024C323.159 43.088 322.847 43.12 322.479 43.12ZM324.657 36.568H325.785L327.177 40.228C327.257 40.444 327.329 40.652 327.393 40.852C327.465 41.052 327.529 41.248 327.585 41.44C327.641 41.624 327.685 41.804 327.717 41.98H327.765C327.813 41.78 327.889 41.52 327.993 41.2C328.097 40.872 328.205 40.544 328.317 40.216L329.625 36.568H330.765L327.993 43.888C327.841 44.288 327.661 44.636 327.453 44.932C327.253 45.236 327.005 45.468 326.709 45.628C326.421 45.796 326.069 45.88 325.653 45.88C325.461 45.88 325.293 45.868 325.149 45.844C325.005 45.828 324.881 45.808 324.777 45.784V44.944C324.865 44.96 324.969 44.976 325.089 44.992C325.217 45.008 325.349 45.016 325.485 45.016C325.733 45.016 325.945 44.968 326.121 44.872C326.305 44.784 326.461 44.652 326.589 44.476C326.717 44.308 326.825 44.108 326.913 43.876L327.249 43.024L324.657 36.568ZM336.323 36.568V42.112H337.259V45.232H336.239V43H331.763V45.232H330.755V42.112H331.271C331.639 41.6 331.943 41.044 332.183 40.444C332.431 39.836 332.615 39.204 332.735 38.548C332.863 37.884 332.931 37.224 332.939 36.568H336.323ZM333.875 37.396C333.843 37.94 333.759 38.504 333.623 39.088C333.487 39.664 333.311 40.216 333.095 40.744C332.887 41.272 332.643 41.728 332.363 42.112H335.303V37.396H333.875ZM339.516 40.492C339.516 40.564 339.512 40.668 339.504 40.804C339.504 40.932 339.5 41.072 339.492 41.224C339.484 41.368 339.476 41.508 339.468 41.644C339.46 41.772 339.452 41.876 339.444 41.956L342.888 36.568H344.184V43H343.2V39.208C343.2 39.08 343.2 38.912 343.2 38.704C343.208 38.496 343.216 38.292 343.224 38.092C343.232 37.884 343.24 37.728 343.248 37.624L339.828 43H338.52V36.568H339.516V40.492ZM350.671 37.456H348.571V43H347.527V37.456H345.451V36.568H350.671V37.456ZM354.902 39.208C355.462 39.208 355.926 39.276 356.294 39.412C356.662 39.548 356.938 39.752 357.122 40.024C357.314 40.288 357.41 40.624 357.41 41.032C357.41 41.432 357.318 41.78 357.134 42.076C356.958 42.372 356.682 42.6 356.306 42.76C355.93 42.92 355.446 43 354.854 43H351.938V36.568H352.994V39.208H354.902ZM356.354 41.092C356.354 40.7 356.214 40.436 355.934 40.3C355.662 40.156 355.278 40.084 354.782 40.084H352.994V42.148H354.806C355.254 42.148 355.622 42.068 355.91 41.908C356.206 41.748 356.354 41.476 356.354 41.092ZM362.627 37.312C362.627 38.344 362.171 39.2 361.259 39.88C360.939 40.12 360.707 40.332 360.563 40.516C360.387 40.772 360.283 41.1 360.251 41.5C360.251 41.484 360.251 41.5 360.251 41.548C360.259 41.588 360.267 41.652 360.275 41.74H359.495C359.495 41.684 359.499 41.636 359.507 41.596C359.507 40.964 359.755 40.4 360.251 39.904C360.403 39.776 360.551 39.648 360.695 39.52C360.847 39.392 360.999 39.264 361.151 39.136C361.487 38.808 361.723 38.368 361.859 37.816C361.899 37.632 361.919 37.464 361.919 37.312C361.919 36.928 361.819 36.612 361.619 36.364C361.387 36.084 361.051 35.944 360.611 35.944C360.171 35.944 359.823 36.108 359.567 36.436C359.431 36.612 359.343 36.808 359.303 37.024L358.823 37.012C358.799 36.428 358.787 36.024 358.787 35.8C358.915 35.832 359.191 35.776 359.615 35.632C359.759 35.584 359.883 35.544 359.987 35.512C360.091 35.48 360.183 35.456 360.263 35.44C360.351 35.416 360.427 35.4 360.491 35.392C360.563 35.384 360.639 35.38 360.719 35.38C360.991 35.38 361.243 35.412 361.475 35.476C361.707 35.54 361.907 35.648 362.075 35.8C362.251 35.952 362.387 36.152 362.483 36.4C362.579 36.648 362.627 36.952 362.627 37.312ZM360.299 42.688C360.299 42.808 360.255 42.912 360.167 43C360.079 43.08 359.979 43.12 359.867 43.12C359.747 43.12 359.643 43.08 359.555 43C359.475 42.912 359.435 42.808 359.435 42.688C359.435 42.568 359.475 42.468 359.555 42.388C359.643 42.3 359.747 42.256 359.867 42.256C359.979 42.256 360.079 42.3 360.167 42.388C360.255 42.468 360.299 42.568 360.299 42.688ZM376.622 40.456H367.934V39.724H376.622V40.456ZM222.228 51.436C222.228 52.02 222.044 52.484 221.676 52.828C221.308 53.164 220.816 53.38 220.2 53.476V53.524C220.92 53.62 221.468 53.844 221.844 54.196C222.22 54.548 222.408 55.008 222.408 55.576C222.408 56.08 222.28 56.524 222.024 56.908C221.768 57.284 221.384 57.58 220.872 57.796C220.36 58.012 219.72 58.12 218.952 58.12C218.488 58.12 218.044 58.084 217.62 58.012C217.204 57.948 216.816 57.828 216.456 57.652V56.668C216.704 56.788 216.968 56.892 217.248 56.98C217.536 57.06 217.824 57.124 218.112 57.172C218.4 57.212 218.676 57.232 218.94 57.232C219.708 57.232 220.288 57.088 220.68 56.8C221.08 56.512 221.28 56.104 221.28 55.576C221.28 55.032 221.048 54.636 220.584 54.388C220.12 54.14 219.472 54.016 218.64 54.016H217.416V53.116H218.58C219.148 53.116 219.616 53.052 219.984 52.924C220.36 52.796 220.64 52.616 220.824 52.384C221.016 52.144 221.112 51.864 221.112 51.544C221.112 51.112 220.952 50.78 220.632 50.548C220.312 50.316 219.896 50.2 219.384 50.2C218.848 50.2 218.4 50.268 218.04 50.404C217.688 50.54 217.344 50.716 217.008 50.932L216.492 50.2C216.716 50.032 216.972 49.884 217.26 49.756C217.556 49.62 217.884 49.512 218.244 49.432C218.604 49.352 218.988 49.312 219.396 49.312C220.012 49.312 220.528 49.404 220.944 49.588C221.368 49.772 221.688 50.024 221.904 50.344C222.12 50.656 222.228 51.02 222.228 51.436ZM226.511 51.46C227.295 51.46 227.875 51.632 228.251 51.976C228.627 52.32 228.815 52.868 228.815 53.62V58H228.047L227.843 57.088H227.795C227.611 57.32 227.419 57.516 227.219 57.676C227.027 57.828 226.803 57.94 226.547 58.012C226.299 58.084 225.995 58.12 225.635 58.12C225.251 58.12 224.903 58.052 224.591 57.916C224.287 57.78 224.047 57.572 223.871 57.292C223.695 57.004 223.607 56.644 223.607 56.212C223.607 55.572 223.859 55.08 224.363 54.736C224.867 54.384 225.643 54.192 226.691 54.16L227.783 54.124V53.74C227.783 53.204 227.667 52.832 227.435 52.624C227.203 52.416 226.875 52.312 226.451 52.312C226.115 52.312 225.795 52.364 225.491 52.468C225.187 52.564 224.903 52.676 224.639 52.804L224.315 52.012C224.595 51.86 224.927 51.732 225.311 51.628C225.695 51.516 226.095 51.46 226.511 51.46ZM226.823 54.892C226.023 54.924 225.467 55.052 225.155 55.276C224.851 55.5 224.699 55.816 224.699 56.224C224.699 56.584 224.807 56.848 225.023 57.016C225.247 57.184 225.531 57.268 225.875 57.268C226.419 57.268 226.871 57.12 227.231 56.824C227.591 56.52 227.771 56.056 227.771 55.432V54.856L226.823 54.892ZM232.325 54.712L230.105 51.568H231.305L232.961 53.992L234.605 51.568H235.793L233.573 54.712L235.913 58H234.713L232.961 55.432L231.185 58H229.997L232.325 54.712ZM242.51 54.772C242.51 55.308 242.438 55.784 242.294 56.2C242.158 56.608 241.958 56.956 241.694 57.244C241.438 57.532 241.122 57.752 240.746 57.904C240.378 58.048 239.966 58.12 239.51 58.12C239.086 58.12 238.694 58.048 238.334 57.904C237.974 57.752 237.662 57.532 237.398 57.244C237.134 56.956 236.926 56.608 236.774 56.2C236.63 55.784 236.558 55.308 236.558 54.772C236.558 54.06 236.678 53.46 236.918 52.972C237.158 52.476 237.502 52.1 237.95 51.844C238.398 51.58 238.93 51.448 239.546 51.448C240.13 51.448 240.642 51.58 241.082 51.844C241.53 52.1 241.878 52.476 242.126 52.972C242.382 53.46 242.51 54.06 242.51 54.772ZM237.65 54.772C237.65 55.276 237.714 55.716 237.842 56.092C237.978 56.46 238.186 56.744 238.466 56.944C238.746 57.144 239.102 57.244 239.534 57.244C239.966 57.244 240.322 57.144 240.602 56.944C240.882 56.744 241.086 56.46 241.214 56.092C241.35 55.716 241.418 55.276 241.418 54.772C241.418 54.26 241.35 53.824 241.214 53.464C241.078 53.104 240.87 52.828 240.59 52.636C240.318 52.436 239.962 52.336 239.522 52.336C238.866 52.336 238.39 52.552 238.094 52.984C237.798 53.416 237.65 54.012 237.65 54.772ZM248.96 51.568V57.112H249.896V60.232H248.876V58H244.4V60.232H243.392V57.112H243.908C244.276 56.6 244.58 56.044 244.82 55.444C245.068 54.836 245.252 54.204 245.372 53.548C245.5 52.884 245.568 52.224 245.576 51.568H248.96ZM246.512 52.396C246.48 52.94 246.396 53.504 246.26 54.088C246.124 54.664 245.948 55.216 245.732 55.744C245.524 56.272 245.28 56.728 245 57.112H247.94V52.396H246.512ZM252.153 55.492C252.153 55.564 252.149 55.668 252.141 55.804C252.141 55.932 252.137 56.072 252.129 56.224C252.121 56.368 252.113 56.508 252.105 56.644C252.097 56.772 252.089 56.876 252.081 56.956L255.525 51.568H256.821V58H255.837V54.208C255.837 54.08 255.837 53.912 255.837 53.704C255.845 53.496 255.853 53.292 255.861 53.092C255.869 52.884 255.877 52.728 255.885 52.624L252.465 58H251.157V51.568H252.153V55.492ZM268.821 53.188C268.821 53.588 268.701 53.9 268.461 54.124C268.221 54.348 267.913 54.5 267.537 54.58V54.628C267.937 54.684 268.285 54.828 268.581 55.06C268.877 55.284 269.025 55.636 269.025 56.116C269.025 56.388 268.973 56.64 268.869 56.872C268.773 57.104 268.621 57.304 268.413 57.472C268.205 57.64 267.937 57.772 267.609 57.868C267.281 57.956 266.885 58 266.421 58H263.649V51.568H266.409C266.865 51.568 267.273 51.62 267.633 51.724C268.001 51.82 268.289 51.988 268.497 52.228C268.713 52.46 268.821 52.78 268.821 53.188ZM267.933 56.116C267.933 55.748 267.793 55.484 267.513 55.324C267.233 55.164 266.821 55.084 266.277 55.084H264.705V57.148H266.301C266.829 57.148 267.233 57.072 267.513 56.92C267.793 56.76 267.933 56.492 267.933 56.116ZM267.753 53.32C267.753 53.016 267.641 52.796 267.417 52.66C267.201 52.516 266.845 52.444 266.349 52.444H264.705V54.208H266.157C266.677 54.208 267.073 54.136 267.345 53.992C267.617 53.848 267.753 53.624 267.753 53.32ZM276.4 51.568V54.244H279.892V51.568H280.948V58H279.892V55.132H276.4V58H275.344V51.568H276.4ZM285.421 51.46C286.205 51.46 286.785 51.632 287.161 51.976C287.537 52.32 287.725 52.868 287.725 53.62V58H286.957L286.753 57.088H286.705C286.521 57.32 286.329 57.516 286.129 57.676C285.937 57.828 285.713 57.94 285.457 58.012C285.209 58.084 284.905 58.12 284.545 58.12C284.161 58.12 283.813 58.052 283.501 57.916C283.197 57.78 282.957 57.572 282.781 57.292C282.605 57.004 282.517 56.644 282.517 56.212C282.517 55.572 282.769 55.08 283.273 54.736C283.777 54.384 284.553 54.192 285.601 54.16L286.693 54.124V53.74C286.693 53.204 286.577 52.832 286.345 52.624C286.113 52.416 285.785 52.312 285.361 52.312C285.025 52.312 284.705 52.364 284.401 52.468C284.097 52.564 283.813 52.676 283.549 52.804L283.225 52.012C283.505 51.86 283.837 51.732 284.221 51.628C284.605 51.516 285.005 51.46 285.421 51.46ZM285.733 54.892C284.933 54.924 284.377 55.052 284.065 55.276C283.761 55.5 283.609 55.816 283.609 56.224C283.609 56.584 283.717 56.848 283.933 57.016C284.157 57.184 284.441 57.268 284.785 57.268C285.329 57.268 285.781 57.12 286.141 56.824C286.501 56.52 286.681 56.056 286.681 55.432V54.856L285.733 54.892ZM298.435 51.568V58H289.711V51.568H290.767V57.112H293.539V51.568H294.595V57.112H297.379V51.568H298.435ZM305.046 49.6H309.726C310.854 49.6 311.806 49.776 312.582 50.128C313.366 50.48 313.95 50.972 314.334 51.604C314.726 52.228 314.922 52.944 314.922 53.752C314.922 54.544 314.718 55.264 314.31 55.912C313.91 56.552 313.294 57.06 312.462 57.436C311.638 57.812 310.614 58 309.39 58H305.046V49.6ZM309.342 55.864C310.102 55.864 310.686 55.676 311.094 55.3C311.502 54.916 311.706 54.396 311.706 53.74C311.706 53.132 311.522 52.648 311.154 52.288C310.794 51.92 310.246 51.736 309.51 51.736H308.046V55.864H309.342ZM315.93 51.46H318.87V58H315.93V51.46ZM317.418 50.74C316.946 50.74 316.558 50.628 316.254 50.404C315.958 50.18 315.81 49.892 315.81 49.54C315.81 49.196 315.962 48.916 316.266 48.7C316.57 48.476 316.954 48.364 317.418 48.364C317.882 48.364 318.258 48.476 318.546 48.7C318.842 48.916 318.99 49.196 318.99 49.54C318.99 49.892 318.842 50.18 318.546 50.404C318.258 50.628 317.882 50.74 317.418 50.74ZM323.747 58.24C323.059 58.24 322.391 58.156 321.743 57.988C321.095 57.82 320.511 57.58 319.991 57.268V55.276C320.383 55.572 320.907 55.82 321.563 56.02C322.227 56.212 322.867 56.308 323.483 56.308C323.771 56.308 323.987 56.272 324.131 56.2C324.283 56.128 324.359 56.04 324.359 55.936C324.359 55.816 324.319 55.716 324.239 55.636C324.159 55.556 324.003 55.492 323.771 55.444L322.331 55.132C321.499 54.956 320.911 54.7 320.567 54.364C320.223 54.02 320.051 53.572 320.051 53.02C320.051 52.564 320.203 52.164 320.507 51.82C320.811 51.476 321.243 51.212 321.803 51.028C322.363 50.836 323.019 50.74 323.771 50.74C324.443 50.74 325.055 50.812 325.607 50.956C326.159 51.092 326.627 51.272 327.011 51.496V53.38C326.619 53.156 326.179 52.98 325.691 52.852C325.211 52.724 324.711 52.66 324.191 52.66C323.439 52.66 323.063 52.788 323.063 53.044C323.063 53.164 323.119 53.252 323.231 53.308C323.343 53.364 323.559 53.42 323.879 53.476L325.079 53.692C325.863 53.836 326.447 54.072 326.831 54.4C327.215 54.728 327.407 55.224 327.407 55.888C327.407 56.36 327.263 56.772 326.975 57.124C326.695 57.476 326.279 57.752 325.727 57.952C325.183 58.144 324.523 58.24 323.747 58.24ZM332.634 58.24C331.658 58.24 330.826 58.076 330.138 57.748C329.458 57.412 328.942 56.96 328.59 56.392C328.238 55.816 328.062 55.172 328.062 54.46C328.062 53.748 328.242 53.112 328.602 52.552C328.962 51.992 329.49 51.552 330.186 51.232C330.882 50.904 331.714 50.74 332.682 50.74C333.882 50.74 334.878 50.988 335.67 51.484V53.68C335.398 53.496 335.074 53.344 334.698 53.224C334.322 53.104 333.922 53.044 333.498 53.044C332.754 53.044 332.17 53.18 331.746 53.452C331.33 53.716 331.122 54.06 331.122 54.484C331.122 54.9 331.326 55.244 331.734 55.516C332.142 55.788 332.734 55.924 333.51 55.924C333.91 55.924 334.302 55.868 334.686 55.756C335.078 55.644 335.414 55.504 335.694 55.336V57.46C334.822 57.98 333.802 58.24 332.634 58.24ZM341.025 58.24C340.081 58.24 339.261 58.076 338.565 57.748C337.877 57.412 337.349 56.956 336.981 56.38C336.621 55.804 336.441 55.156 336.441 54.436C336.441 53.716 336.621 53.076 336.981 52.516C337.349 51.956 337.877 51.52 338.565 51.208C339.253 50.896 340.073 50.74 341.025 50.74C341.977 50.74 342.797 50.896 343.485 51.208C344.173 51.52 344.697 51.956 345.057 52.516C345.417 53.076 345.597 53.716 345.597 54.436C345.597 55.156 345.417 55.804 345.057 56.38C344.697 56.956 344.169 57.412 343.473 57.748C342.785 58.076 341.969 58.24 341.025 58.24ZM341.025 56.08C341.529 56.08 341.925 55.936 342.213 55.648C342.509 55.352 342.657 54.964 342.657 54.484C342.657 54.004 342.509 53.624 342.213 53.344C341.925 53.056 341.529 52.912 341.025 52.912C340.513 52.912 340.109 53.056 339.813 53.344C339.525 53.624 339.381 54.004 339.381 54.484C339.381 54.964 339.525 55.352 339.813 55.648C340.109 55.936 340.513 56.08 341.025 56.08ZM346.598 50.98H349.478V53.212C349.638 52.396 349.894 51.796 350.246 51.412C350.606 51.02 351.066 50.824 351.626 50.824C352.05 50.824 352.414 50.92 352.718 51.112V53.704C352.414 53.504 352.018 53.404 351.53 53.404C350.89 53.404 350.398 53.6 350.054 53.992C349.71 54.376 349.538 54.976 349.538 55.792V58H346.598V50.98ZM356.441 58.24C355.777 58.24 355.197 58.08 354.701 57.76C354.205 57.432 353.821 56.988 353.549 56.428C353.285 55.86 353.153 55.22 353.153 54.508C353.145 53.772 353.281 53.12 353.561 52.552C353.841 51.976 354.245 51.532 354.773 51.22C355.301 50.9 355.913 50.74 356.609 50.74C358.049 50.74 358.997 51.32 359.453 52.48V49.36H362.393V58H359.453V56.44C359.205 57.032 358.825 57.48 358.313 57.784C357.809 58.088 357.185 58.24 356.441 58.24ZM357.821 55.996C358.317 55.996 358.713 55.852 359.009 55.564C359.313 55.268 359.465 54.888 359.465 54.424C359.465 53.976 359.317 53.612 359.021 53.332C358.733 53.052 358.337 52.912 357.833 52.912C357.337 52.912 356.941 53.056 356.645 53.344C356.349 53.624 356.201 53.992 356.201 54.448C356.201 54.904 356.349 55.276 356.645 55.564C356.941 55.852 357.333 55.996 357.821 55.996ZM363.838 49.6H366.754V55.288H363.838V49.6ZM365.302 58.24C364.798 58.24 364.39 58.128 364.078 57.904C363.766 57.68 363.61 57.392 363.61 57.04C363.61 56.696 363.766 56.416 364.078 56.2C364.39 55.976 364.798 55.864 365.302 55.864C365.798 55.864 366.202 55.976 366.514 56.2C366.826 56.416 366.982 56.696 366.982 57.04C366.982 57.392 366.826 57.68 366.514 57.904C366.202 58.128 365.798 58.24 365.302 58.24Z" fill="white"/>
</svg>
